<?xml version="1.0" encoding="UTF-8"?>
<svg width="140px" height="57px" viewBox="0 0 140 57" version="1.1" xmlns="http://www.w3.org/2000/svg" xmlns:xlink="http://www.w3.org/1999/xlink">
    <title>Group 3</title>
    <g id="Page-1" stroke="none" stroke-width="1" fill="none" fill-rule="evenodd">
        <g id="Desktop" transform="translate(-327.000000, -22.000000)">
            <g id="Group-3" transform="translate(327.000000, 22.000000)">
                <g id="START-PLAY" fill="#D1D9DD" fill-rule="nonzero">
                    <g id="Group">
                        <g transform="translate(0.000000, 4.133739)" id="Path">
                            <path d="M8.22493076,21.3824348 C6.69401299,21.3824348 5.3131852,21.1445217 4.08244739,20.6389565 C2.85170957,20.1333913 1.89113372,19.4196522 1.17070182,18.4382609 C0.731755958,17.864235 0.377535599,16.8934093 0.108040744,15.5257839 C0.0545734497,15.2548262 0.230953611,14.9918743 0.501925403,14.9384785 C0.533770088,14.9322034 0.566150058,14.9290435 0.598607119,14.9290435 L5.08479989,14.9290435 C5.30524951,14.9291156 5.49967846,15.0735133 5.56339255,15.2845549 C5.77780666,15.9947635 6.01459616,16.4611292 6.27376106,16.6836522 C6.72403099,17.1 7.3243909,17.3081739 8.07484078,17.3081739 C8.82529067,17.3081739 9.42565058,17.1297391 9.87592051,16.7728696 C10.3261904,16.4457391 10.5363164,15.969913 10.5363164,15.3453913 C10.5363164,14.8398261 10.3562084,14.3937391 10.0260105,14.0666087 C9.66579455,13.7394783 9.21552461,13.442087 8.73523669,13.233913 C8.22493076,13.0257391 7.47448088,12.758087 6.54392302,12.4904348 C5.19311322,12.074087 4.08244739,11.6577391 3.21192552,11.2413913 C2.34140365,10.8250435 1.62097176,10.2005217 0.990593851,9.39756522 C0.360215946,8.5946087 0.060035991,7.524 0.060035991,6.21547826 C0.060035991,4.28243478 0.780467883,2.76573913 2.19131367,1.63565217 C3.60215946,0.565043478 5.46327518,0 7.74464283,0 C10.0560285,0 11.9471622,0.565043478 13.358008,1.63565217 C14.2097714,2.31791437 14.9138302,3.64241386 15.4701842,5.60915063 C15.545313,5.87485738 15.3908526,6.15117793 15.1251549,6.22633895 C15.0808762,6.23886461 15.0350802,6.24521739 14.9890639,6.24521739 L10.4688623,6.24521739 C10.2474571,6.245286 10.0524082,6.09969576 9.98944242,5.88743283 C9.80722401,5.2731597 9.5892754,4.85711688 9.33559659,4.63930435 C8.88532666,4.25269565 8.28496675,4.07426087 7.56453486,4.07426087 C6.93415696,4.07426087 6.45386903,4.22295652 6.06363509,4.55008696 C5.67340115,4.87721739 5.49329317,5.35304348 5.49329317,5.97756522 C5.49329317,6.66156522 5.82349112,7.16713043 6.45386903,7.55373913 C7.08424693,7.94034783 8.10485878,8.32695652 9.45566858,8.77304348 C10.8064784,9.21913043 11.9171442,9.66521739 12.7876661,10.0815652 C13.6281699,10.497913 14.3486018,11.0926957 14.9789797,11.8956522 C15.6093577,12.6986087 15.9095376,13.7097391 15.9095376,14.9587826 C15.9095376,16.1483478 15.6093577,17.2189565 15.0089977,18.2003478 C14.3786198,19.1817391 13.508098,19.9549565 12.3373961,20.52 C11.1666943,21.0850435 9.81588452,21.3824348 8.22493076,21.3824348 Z"></path>
                        </g>
                        <g transform="translate(12.147616, 0.000000)" id="Path">
                            <path d="M23.1588835,4.93113043 L23.1588835,8.0053913 C23.1588835,8.28153368 22.9350259,8.5053913 22.6588835,8.5053913 L17.5755364,8.5053913 L17.5755364,8.5053913 L17.5755364,24.808 C17.5755364,25.0841424 17.3516787,25.308 17.0755364,25.308 L12.9424591,25.308 C12.6663168,25.308 12.4424591,25.0841424 12.4424591,24.808 L12.4424591,8.5053913 L12.4424591,8.5053913 L7.35911197,8.5053913 C7.08296959,8.5053913 6.85911197,8.28153368 6.85911197,8.0053913 L6.85911197,4.93113043 C6.85911197,4.65498806 7.08296959,4.43113043 7.35911197,4.43113043 L22.6588835,4.43113043 C22.9350259,4.43113043 23.1588835,4.65498806 23.1588835,4.93113043 Z"></path>
                        </g>
                        <g transform="translate(37.808114, 4.431130)" id="Shape">
                            <path d="M14.2837814,17.1892174 L6.41906662,17.1892174 L5.27395338,20.5386204 C5.20478768,20.7409269 5.01464276,20.8768696 4.80083959,20.8768696 L0.5,20.8768696 C0.223857625,20.8768696 -4.97379915e-14,20.6530119 -4.97379915e-14,20.3768696 C-4.97379915e-14,20.3183591 0.010269828,20.2603027 0.0303420454,20.2053429 L7.2896967,0.328473309 C7.36173712,0.131219135 7.54935696,6.21724894e-15 7.75935466,7.10542736e-15 L13.0035294,7.10542736e-15 C13.2135271,5.32907052e-15 13.4011469,0.131219135 13.4731874,0.328473309 L20.732542,20.2053429 C20.8272736,20.4647278 20.6937957,20.7517959 20.4344107,20.8465275 C20.3794509,20.8665997 20.3213945,20.8768696 20.2628841,20.8768696 L15.9020085,20.8768696 C15.6882053,20.8768696 15.4980604,20.7409269 15.4288947,20.5386204 L14.2837814,17.1892174 L14.2837814,17.1892174 Z M12.9629896,13.2636522 L10.351424,5.62069565 L7.76987642,13.2636522 L12.9629896,13.2636522 Z"></path>
                        </g>
                        <g transform="translate(62.183278, 4.431130)" id="Shape">
                            <path d="M10.6035258,20.619876 L6.36381504,12.996 L6.36381504,12.996 L5.13307723,12.996 L5.13307723,20.3768696 C5.13307723,20.6530119 4.9092196,20.8768696 4.63307723,20.8768696 L0.5,20.8768696 C0.223857625,20.8768696 9.76996262e-14,20.6530119 9.76996262e-14,20.3768696 L9.76996262e-14,0.5 C9.68114477e-14,0.223857625 0.223857625,7.10542736e-15 0.5,6.21724894e-15 L8.6151647,6.21724894e-15 L8.6151647,6.21724894e-15 C10.2661545,6.21724894e-15 11.7070182,0.297391304 12.8777201,0.862434783 C14.0484219,1.42747826 14.9189438,2.23043478 15.4892857,3.21182609 C16.0596276,4.22295652 16.3598075,5.35304348 16.3598075,6.57234783 C16.3598075,7.97008696 15.9695736,9.1893913 15.1891057,10.2897391 C14.3786198,11.390087 13.207918,12.1633043 11.6770002,12.6093913 L16.0967093,20.1233714 C16.2367125,20.3613918 16.1572538,20.6678405 15.9192334,20.8078437 C15.8423978,20.8530382 15.7548769,20.8768696 15.6657352,20.8768696 L11.0405016,20.8768696 C10.8589938,20.8768696 10.6917409,20.778505 10.6035258,20.619876 Z M5.13307723,9.39756522 L8.31498475,9.39756522 C9.24554261,9.39756522 9.9659745,9.15965217 10.4462624,8.71356522 C10.8965324,8.26747826 11.1366763,7.61321739 11.1366763,6.78052174 C11.1366763,5.97756522 10.8965324,5.35304348 10.4462624,4.90695652 C9.9659745,4.46086957 9.24554261,4.22295652 8.31498475,4.22295652 L5.13307723,4.22295652 L5.13307723,9.39756522 Z"></path>
                        </g>
                        <g transform="translate(81.700228, 4.431130)" id="Path">
                            <path d="M16.2997715,0.5 L16.2997715,3.57426087 C16.2997715,3.85040324 16.0759139,4.07426087 15.7997715,4.07426087 L10.7164244,4.07426087 L10.7164244,4.07426087 L10.7164244,9.65153225 L10.7164244,20.3768696 C10.7164244,20.6530119 10.4925668,20.8768696 10.2164244,20.8768696 L6.08334716,20.8768696 C5.80720478,20.8768696 5.58334716,20.6530119 5.58334716,20.3768696 L5.58334716,4.07426087 L5.58334716,4.07426087 L0.5,4.07426087 C0.223857625,4.07426087 2.23570234e-16,3.85040324 0,3.57426087 L0,0.5 C-3.38176876e-17,0.223857625 0.223857625,-6.02957711e-17 0.5,0 L15.7997715,0 C16.0759139,-5.07265313e-17 16.2997715,0.223857625 16.2997715,0.5 Z"></path>
                        </g>
                    </g>
                    <g id="Group" transform="translate(0.600360, 27.260870)">
                        <g transform="translate(0.000000, 4.431130)" id="Shape">
                            <path d="M16.0596276,6.72104348 C16.0596276,7.94034783 15.7894656,9.04069565 15.2191237,10.022087 C14.6487818,11.0332174 13.8082779,11.8361739 12.6375761,12.4606957 C11.4668743,13.0852174 10.0260105,13.3826087 8.31498475,13.3826087 L5.13307723,13.3826087 L5.13307723,20.3768696 C5.13307723,20.6530119 4.9092196,20.8768696 4.63307723,20.8768696 L0.5,20.8768696 C0.223857625,20.8768696 -1.21680443e-13,20.6530119 -1.22568622e-13,20.3768696 L-1.22568622e-13,0.5 C-1.22568622e-13,0.223857625 0.223857625,0 0.5,0 L8.31498475,0 L8.31498475,0 C9.9959925,0 11.4068383,0.297391304 12.5775401,0.862434783 C13.7482419,1.42747826 14.6187638,2.23043478 15.1891057,3.24156522 C15.7594476,4.25269565 16.0596276,5.41252174 16.0596276,6.72104348 Z M7.92475081,9.33808696 C8.91534466,9.33808696 9.63577655,9.10017391 10.1160645,8.65408696 C10.5963524,8.208 10.8364964,7.55373913 10.8364964,6.72104348 C10.8364964,5.88834783 10.5963524,5.23408696 10.1160645,4.788 C9.63577655,4.34191304 8.91534466,4.104 7.92475081,4.104 L5.13307723,4.104 L5.13307723,9.33808696 L7.92475081,9.33808696 Z"></path>
                        </g>
                        <g transform="translate(10.736770, 0.000000)" id="Path">
                            <path d="M14.2135209,21.3824348 L20.4375518,21.3824348 C20.7136942,21.3824348 20.9375518,21.6062924 20.9375518,21.8824348 L20.9375518,24.808 C20.9375518,25.0841424 20.7136942,25.308 20.4375518,25.308 L9.58044363,25.308 C9.30430126,25.308 9.08044363,25.0841424 9.08044363,24.808 L9.08044363,4.93113043 C9.08044363,4.65498806 9.30430126,4.43113043 9.58044363,4.43113043 L13.7135209,4.43113043 C13.9896632,4.43113043 14.2135209,4.65498806 14.2135209,4.93113043 L14.2135209,21.3824348 L14.2135209,21.3824348 Z"></path>
                        </g>
                        <g transform="translate(34.055864, 4.431130)" id="Shape">
                            <path d="M14.2837814,17.1892174 L6.41906662,17.1892174 L5.27395338,20.5386204 C5.20478768,20.7409269 5.01464276,20.8768696 4.80083959,20.8768696 L0.5,20.8768696 C0.223857625,20.8768696 -4.70734562e-14,20.6530119 -4.70734562e-14,20.3768696 C-4.70734562e-14,20.3183591 0.010269828,20.2603027 0.0303420454,20.2053429 L7.2896967,0.328473309 C7.36173712,0.131219135 7.54935696,-8.8817842e-16 7.75935466,0 L13.0035294,0 C13.2135271,-1.77635684e-15 13.4011469,0.131219135 13.4731874,0.328473309 L20.732542,20.2053429 C20.8272736,20.4647278 20.6937957,20.7517959 20.4344107,20.8465275 C20.3794509,20.8665997 20.3213945,20.8768696 20.2628841,20.8768696 L15.9020085,20.8768696 C15.6882053,20.8768696 15.4980604,20.7409269 15.4288947,20.5386204 L14.2837814,17.1892174 L14.2837814,17.1892174 Z M12.9629896,13.2636522 L10.351424,5.62069565 L7.76987642,13.2636522 L12.9629896,13.2636522 Z"></path>
                        </g>
                        <g transform="translate(51.631953, 0.000000)" id="Path">
                            <path d="M24.6409145,4.86992747 L17.5755364,18.4085217 L17.5755364,18.4085217 L17.5755364,25.008 C17.5755364,25.1736854 17.4412218,25.308 17.2755364,25.308 L12.7424591,25.308 C12.5767737,25.308 12.4424591,25.1736854 12.4424591,25.008 L12.4424591,18.4085217 L12.4424591,18.4085217 L5.37708097,4.86992747 C5.30042549,4.72304113 5.35735884,4.54182468 5.50424518,4.46516919 C5.54709344,4.442808 5.59471007,4.43113043 5.64304222,4.43113043 L10.7805628,4.43113043 C10.8970973,4.43113043 11.0030881,4.49861634 11.052391,4.60420764 L15.0540247,13.1744348 L15.0540247,13.1744348 L19.0258788,4.60497537 C19.0750124,4.49896747 19.1812234,4.43113043 19.2980642,4.43113043 L24.3749533,4.43113043 C24.5406387,4.43113043 24.6749533,4.56544501 24.6749533,4.73113043 C24.6749533,4.77946258 24.6632757,4.82707921 24.6409145,4.86992747 Z"></path>
                        </g>
                    </g>
                </g>
                <g id="shapes" transform="translate(105.000000, 1.998750)">
                    <path d="M28.5323665,2.11001373 C29.8678546,3.49176025 31.2776292,5.83893396 32.2564985,8.18958028 C33.3850859,10.328641 33.9396833,12.8128096 33.9396833,15.659712 C33.9396833,19.1272071 33.0119062,22.461337 31.1563521,25.5954192 C29.3007979,28.7295013 27.1801646,31.4634879 24.7944521,33.7973788 C22.4087396,36.1312698 19.2940594,38.9986215 15.4504114,42.2660689 L34.5,42.2660689 C34.7761424,42.2660689 35,42.4899265 35,42.7660689 L35,49.5012503 C35,49.7773927 34.7761424,50.0012503 34.5,50.0012503 L2.7627229,50.0012503 C2.48658052,50.0012503 2.2627229,49.7773927 2.2627229,49.5012503 L2.2627229,43.2972295 C2.2627229,43.1506896 2.32700788,43.0115262 2.43858391,42.9165276 L5.70875207,40.1322257 C9.95001873,36.598048 13.3297781,33.597331 15.8480302,31.1967575 C17.8094312,29.3789505 19.5296189,27.4802383 20.9772809,25.5006208 C19.196355,24.6459333 16.6095595,23.1815868 14.1170301,22.5098878 C9.85091226,21.3621135 7.30615226,24.9463032 5.61130234,24.9254649 C0.837392217,24.8650882 0.17264764,22.0551855 0.150702955,17.9719884 L0.150877803,17.4858268 C0.158137465,16.1742054 0.215284547,14.7429596 0.215284547,13.2376724 C0.215284547,6.1326415 -1.65186683,0.318752421 5.61130234,0.318752421 C5.61130234,0.318752421 9.79726976,0.0149849477 14.6231579,0.000532560209 L15.3513973,0.000608700555 C20.8425393,0.0185657565 26.9191827,0.440218224 28.5323665,2.11001373 Z" id="Combined-Shape" fill="#D1D9DD" fill-rule="nonzero"></path>
                    <line x1="4.25885761" y1="6.2115379" x2="8.63680572" y2="6.2115379" id="Shape1" stroke="#AFB6BB" stroke-width="0.50729927"></line>
                    <ellipse id="Oval" fill="#43B05C" cx="14.1170301" cy="12.4299794" rx="2.83551871" ry="2.77399611"></ellipse>
                    <ellipse id="Oval1" fill="#DD352E" cx="27.347794" cy="12.4299794" rx="2.83551871" ry="2.77399611"></ellipse>
                    <ellipse id="Oval2" fill="#EBBA16" cx="20.7324121" cy="18.0688267" rx="2.83551871" ry="2.77399611"></ellipse>
                    <ellipse id="Oval3" fill="#366DB6" cx="20.7324121" cy="7.62466465" rx="2.83551871" ry="2.77399611"></ellipse>
                </g>
            </g>
        </g>
    </g>
</svg>